<svg width="89" height="89" viewBox="0 0 89 89" fill="none" xmlns="http://www.w3.org/2000/svg">
<path d="M44.6437 85.3001C67.4474 85.3001 86 66.909 86 44.3029C86 21.6966 67.4474 3.30554 44.6437 3.30554C21.84 3.30554 3.28748 21.6966 3.28748 44.3029C3.28748 66.909 21.84 85.3001 44.6437 85.3001Z" stroke="white" stroke-width="6"/>
<path fill-rule="evenodd" clip-rule="evenodd" d="M23.9468 49.5169C25.357 49.4989 26.7787 49.6736 28.1499 50.0342L28.1526 50.0349C33.3427 51.4016 37.5182 55.4205 39.0494 60.5242C39.4593 61.8917 39.6772 63.303 39.6958 64.7188C39.7115 65.8664 39.5943 67.0259 39.3478 68.1656L38.8484 70.4803L41.1531 69.8626C49.2895 67.6827 54.8932 60.3186 54.7805 51.9541C54.7766 51.6517 54.7607 51.338 54.7384 51.0161C61.7259 43.3165 65.9572 33.4424 66.6597 23.1274L66.6601 23.1199C66.7203 22.2341 65.9646 21.5062 65.0731 21.5915L65.0659 21.5923C54.819 22.5724 45.0826 26.9587 37.5617 33.9516C37.0581 33.9173 36.5599 33.8956 36.0786 33.9017C27.4127 34.0162 20.0938 39.9581 18.28 48.3519L17.7801 50.6669L20.0852 50.0487C21.3387 49.713 22.6379 49.5339 23.9468 49.5169ZM42.5568 66.3208C42.5992 65.7737 42.6175 65.2262 42.6102 64.6806C42.593 63.3959 42.4382 62.115 42.1494 60.8586C42.2453 60.8074 42.3359 60.748 42.4311 60.696C43.1948 60.2805 43.9496 59.8516 44.6865 59.3958C44.6967 59.3897 44.707 59.3843 44.7166 59.3781C45.4625 58.916 46.1891 58.4264 46.9067 57.9238C47.1018 57.7871 47.2944 57.6475 47.4873 57.5078C48.0785 57.0801 48.66 56.6391 49.2312 56.1837C49.3589 56.0819 49.4896 55.9843 49.6165 55.8811C50.2909 55.3316 50.9489 54.7607 51.5933 54.1728C51.6472 54.1235 51.7051 54.0791 51.7591 54.0296C51.1088 59.4591 47.5955 64.1422 42.5568 66.3208ZM35.2519 40.6682C35.4937 40.3684 35.7429 40.0734 35.993 39.7795C36.1515 39.5937 36.3074 39.4058 36.469 39.2223C36.7498 38.9034 37.0395 38.5913 37.3301 38.2796C37.4716 38.1282 37.6087 37.9737 37.7524 37.8241C38.1905 37.3675 38.638 36.9179 39.0975 36.478C45.7863 30.0772 54.4289 25.9238 63.5974 24.6711C62.586 33.9099 58.5655 42.6825 52.1671 49.5371C51.7432 49.9914 51.3097 50.4341 50.8689 50.8683C50.7256 51.0096 50.5777 51.1451 50.4323 51.2842C50.1315 51.573 49.8292 51.8607 49.5209 52.1404C49.3431 52.3016 49.1611 52.4574 48.981 52.6155C48.6974 52.8644 48.4127 53.1116 48.1231 53.3528C47.928 53.5154 47.7298 53.6741 47.5317 53.8333C47.2481 54.0609 46.9631 54.2862 46.6744 54.5067C46.4691 54.6632 46.2624 54.8176 46.0545 54.9707C45.7628 55.1852 45.4682 55.3957 45.1714 55.603C44.9616 55.7495 44.7518 55.8955 44.5395 56.0383C44.2329 56.2444 43.9224 56.4445 43.6105 56.643C43.402 56.7756 43.1943 56.91 42.9833 57.0393C42.6481 57.2446 42.3076 57.4421 41.9667 57.6386C41.7738 57.7499 41.5828 57.8645 41.3884 57.9729C41.3443 57.9973 41.2988 58.0195 41.2551 58.0437C39.3129 53.3186 35.409 49.561 30.5874 47.7759C30.6145 47.7246 30.6389 47.6716 30.6661 47.6205C30.7749 47.4146 30.8903 47.2126 31.0025 47.0088C31.1924 46.6628 31.3837 46.3175 31.5834 45.9772C31.7122 45.7569 31.8464 45.5399 31.9793 45.3219C32.1736 45.0036 32.37 44.6866 32.5721 44.3734C32.715 44.1521 32.8614 43.9328 33.0087 43.714C33.2131 43.4098 33.4212 43.1079 33.6334 42.8088C33.7865 42.5928 33.9416 42.378 34.0986 42.1648C34.3182 41.8671 34.543 41.5729 34.7703 41.2806C34.9299 41.0758 35.0886 40.8705 35.2519 40.6682ZM34.6667 36.875C34.6011 36.9481 34.5422 37.0266 34.4768 37.0999C33.8715 37.7782 33.2824 38.4683 32.7203 39.1779C32.6555 39.2595 32.5955 39.3443 32.5313 39.4263C32.0283 40.0697 31.546 40.7271 31.0787 41.3948C30.9409 41.5913 30.8043 41.7884 30.6701 41.987C30.1688 42.727 29.6825 43.4764 29.2253 44.2445C29.2161 44.2595 29.2064 44.2737 29.1973 44.2889C28.7338 45.0694 28.3015 45.8692 27.8838 46.6776C27.8323 46.7774 27.7725 46.8724 27.7217 46.9726C26.4627 46.7267 25.1825 46.6113 23.9083 46.6278C23.1916 46.6374 22.4772 46.6876 21.7692 46.7783C23.8135 41.324 28.772 37.4874 34.6667 36.875ZM53.6599 38.4492H53.6603C53.8137 38.4654 53.9698 38.4728 54.128 38.4708C55.1659 38.4569 56.1363 38.0436 56.8603 37.3062C57.5846 36.569 57.976 35.5965 57.9621 34.5679C57.9338 32.4661 56.1898 30.7353 54.0246 30.767C51.8823 30.7954 50.1622 32.5463 50.1908 34.6702C50.2172 36.6179 51.7086 38.2424 53.6599 38.4492ZM54.0537 32.9336C54.1235 32.9329 54.1927 32.936 54.2605 32.9432C55.1135 33.0336 55.7651 33.7441 55.7766 34.5966C55.7822 35.0466 55.6111 35.4722 55.2944 35.7948C54.9779 36.1173 54.5531 36.2978 54.0988 36.304C53.1464 36.3156 52.389 35.5614 52.3764 34.6415C52.364 33.7123 53.1163 32.946 54.0537 32.9336Z" fill="white"/>
<path fill-rule="evenodd" clip-rule="evenodd" d="M21.5211 59.6204C21.2356 59.6204 20.9535 59.6369 20.6762 59.6684C20.0522 59.7391 19.6043 60.2984 19.6761 60.9174C19.7475 61.5363 20.3176 61.9862 20.9356 61.9084C21.1281 61.8863 21.3236 61.8761 21.5211 61.8761C24.3521 61.8761 26.6549 64.1586 26.6549 66.9649C26.6549 67.1551 26.6445 67.3424 26.6239 67.5264C26.5553 68.1454 27.0056 68.7023 27.6299 68.7708C27.6725 68.7754 27.7145 68.7778 27.7562 68.7778C28.3282 68.7778 28.8209 68.3507 28.8851 67.7735C28.9146 67.5076 28.9296 67.2386 28.9296 66.9649C28.9296 62.915 25.6064 59.6204 21.5211 59.6204Z" fill="white"/>
<path fill-rule="evenodd" clip-rule="evenodd" d="M22.5166 53.9937C21.7484 53.9937 20.9769 54.066 20.2239 54.2069C19.6067 54.3232 19.2013 54.9131 19.3182 55.5251C19.4357 56.1369 20.0327 56.5397 20.6476 56.4232C21.2614 56.3076 21.89 56.2495 22.5166 56.2495C27.9929 56.2495 32.4487 60.6658 32.4487 66.0951C32.4487 66.6747 32.3975 67.2567 32.2963 67.8246C32.1868 68.4373 32.5998 69.0224 33.2183 69.131C33.2854 69.1428 33.3519 69.1483 33.4174 69.1483C33.9589 69.1483 34.439 68.7637 34.5362 68.2163C34.6604 67.5203 34.7234 66.8061 34.7234 66.0951C34.7234 59.4222 29.2474 53.9937 22.5166 53.9937Z" fill="white"/>
</svg>
